<svg width="32" height="32" viewBox="0 0 32 32" fill="none" xmlns="http://www.w3.org/2000/svg">
<g clip-path="url(#clip0_147_100)">
<path d="M6.48386 25.5161C5.73305 26.2669 5.72527 27.5003 6.58947 28.1171C6.88112 28.3253 7.18029 28.5183 7.48588 28.6961C8.04454 29.0211 8.35702 29.6678 8.18975 30.2921C8.05234 30.8049 8.35666 31.332 8.86947 31.4694L10.7265 31.967C11.2393 32.1044 11.7664 31.8001 11.9038 31.2873L11.9126 31.2545C12.0753 30.6474 12.6526 30.2542 13.2811 30.2542C13.9096 30.2542 14.487 30.6474 14.6497 31.2545L14.6584 31.2873C14.7958 31.8001 15.3229 32.1044 15.8357 31.967L17.6928 31.4694C18.2056 31.332 18.5099 30.8049 18.3725 30.2921L18.3645 30.2621C18.2018 29.6551 18.4996 29.0291 19.0438 28.7149C19.5885 28.4004 20.2913 28.448 20.736 28.8927L20.7581 28.9148C21.1335 29.2902 21.7421 29.2902 22.1175 28.9148L23.477 27.5553C23.8524 27.1799 23.8524 26.5713 23.477 26.1959L23.4549 26.1738C23.0102 25.7291 22.9626 25.0263 23.2771 24.4816C23.5913 23.9374 24.2173 23.6396 24.8243 23.8023L24.8543 23.8103C25.3671 23.9477 25.8942 23.6434 26.0316 23.1306L26.5292 21.2735C26.6666 20.7607 26.3623 20.2336 25.8495 20.0962L25.8168 20.0874C25.2097 19.9248 24.8164 19.3474 24.8164 18.7189C24.8164 18.0904 25.2096 17.513 25.8167 17.3503L25.8495 17.3416C26.3623 17.2042 26.6666 16.6771 26.5292 16.1643L26.0316 14.3072C25.8942 13.7944 25.3671 13.4901 24.8543 13.6275C24.23 13.7948 23.5833 13.4823 23.2583 12.9236C22.7674 12.0799 22.1606 11.285 21.4378 10.5622L6.48386 25.5161Z" fill="url(#paint0_linear_147_100)"/>
<path d="M6.48386 25.5161C5.73305 26.2669 5.72527 27.5003 6.58947 28.1171C6.88112 28.3253 7.18029 28.5183 7.48588 28.6961C8.04454 29.0211 8.35702 29.6678 8.18975 30.2921C8.05234 30.8049 8.35666 31.332 8.86947 31.4694L10.7265 31.967C11.2393 32.1044 11.7664 31.8001 11.9038 31.2873L11.9126 31.2545C12.0753 30.6474 12.6526 30.2542 13.2811 30.2542C13.9096 30.2542 14.487 30.6474 14.6497 31.2545L14.6584 31.2873C14.7958 31.8001 15.3229 32.1044 15.8357 31.967L17.6928 31.4694C18.2056 31.332 18.5099 30.8049 18.3725 30.2921L18.3645 30.2621C18.2018 29.6551 18.4996 29.0291 19.0438 28.7149C19.5885 28.4004 20.2913 28.448 20.736 28.8927L20.7581 28.9148C21.1335 29.2902 21.7421 29.2902 22.1175 28.9148L23.477 27.5553C23.8524 27.1799 23.8524 26.5713 23.477 26.1959L23.4549 26.1738C23.0102 25.7291 22.9626 25.0263 23.2771 24.4816C23.5913 23.9374 24.2173 23.6396 24.8243 23.8023L24.8543 23.8103C25.3671 23.9477 25.8942 23.6434 26.0316 23.1306L26.5292 21.2735C26.6666 20.7607 26.3623 20.2336 25.8495 20.0962L25.8168 20.0874C25.2097 19.9248 24.8164 19.3474 24.8164 18.7189C24.8164 18.0904 25.2096 17.513 25.8167 17.3503L25.8495 17.3416C26.3623 17.2042 26.6666 16.6771 26.5292 16.1643L26.0316 14.3072C25.8942 13.7944 25.3671 13.4901 24.8543 13.6275C24.23 13.7948 23.5833 13.4823 23.2583 12.9236C22.7674 12.0799 22.1606 11.285 21.4378 10.5622L6.48386 25.5161Z" fill="url(#paint1_linear_147_100)"/>
<path d="M8.52302 5.80409C8.14762 5.42869 8.14762 4.82005 8.52302 4.44464L9.88247 3.0852C10.2579 2.70979 10.8665 2.7098 11.2419 3.0852L11.2639 3.10721C11.7087 3.55194 12.4115 3.59951 12.9562 3.28505C13.5004 2.97084 13.7982 2.34481 13.6355 1.73779L13.6275 1.7079C13.4901 1.19509 13.7944 0.667992 14.3072 0.530585L16.1643 0.0329932C16.6771 -0.104413 17.2042 0.19991 17.3416 0.712717L17.3503 0.745401C17.513 1.35251 18.0904 1.74576 18.7189 1.74576C19.3474 1.74576 19.9248 1.35251 20.0875 0.745401L20.0962 0.712738C20.2336 0.199929 20.7607 -0.104393 21.2735 0.0330136L23.1306 0.530606C23.6434 0.668013 23.9477 1.19512 23.8103 1.70792C23.643 2.3322 23.9555 2.97893 24.5142 3.30391C24.8197 3.48166 25.1189 3.67463 25.4105 3.88281C26.2747 4.4997 26.2669 5.73302 25.5161 6.48382L10.5622 21.4378C9.83939 20.715 9.23257 19.9201 8.74172 19.0763C8.41673 18.5177 7.76999 18.2052 7.14571 18.3725C6.6329 18.5099 6.1058 18.2055 5.96839 17.6927L5.4708 15.8357C5.33339 15.3229 5.63772 14.7958 6.15052 14.6584L6.18324 14.6496C6.79034 14.4869 7.18358 13.9096 7.18358 13.2811C7.18358 12.6526 6.79033 12.0752 6.18324 11.9125L6.15054 11.9038C5.63773 11.7664 5.33341 11.2393 5.47081 10.7265L5.96841 8.86941C6.10581 8.3566 6.63292 8.05228 7.14572 8.18969L7.17561 8.19769C7.78263 8.36034 8.40866 8.06257 8.72287 7.51833C9.03733 6.97365 8.98976 6.27084 8.54503 5.82611L8.52302 5.80409Z" fill="url(#paint2_linear_147_100)"/>
<path fill-rule="evenodd" clip-rule="evenodd" d="M8.92926 5.39781C8.55385 5.02241 8.55385 4.41376 8.92926 4.03836L8.52302 4.4446C8.14762 4.82 8.14762 5.42865 8.52302 5.80405L8.54503 5.82606C8.98976 6.27079 9.03733 6.97361 8.72287 7.51829C8.70603 7.54745 8.68829 7.57592 8.66971 7.60364C8.85429 7.48063 9.01299 7.31317 9.12911 7.11205C9.44357 6.56737 9.396 5.86455 8.95127 5.41983L8.92926 5.39781ZM6.45106 8.26654C6.22139 8.38686 6.0408 8.59917 5.96841 8.86937L5.47081 10.7264C5.33341 11.2392 5.63773 11.7663 6.15054 11.9037L6.18324 11.9125C6.79033 12.0752 7.18358 12.6525 7.18358 13.281C7.18358 13.5722 7.0992 13.8523 6.94828 14.0854C7.34695 13.8311 7.58982 13.3687 7.58982 12.8748C7.58982 12.2463 7.19657 11.6689 6.58948 11.5062L6.55678 11.4975C6.04397 11.3601 5.73965 10.833 5.87705 10.3202L6.37464 8.46313C6.39328 8.39357 6.41909 8.32784 6.45106 8.26654ZM5.95393 14.7348C5.56328 14.9385 5.35203 15.3924 5.4708 15.8356L5.96839 17.6927C6.1058 18.2055 6.6329 18.5098 7.14571 18.3724C7.76999 18.2051 8.41673 18.5176 8.74172 19.0763C9.23257 19.9201 9.83939 20.7149 10.5622 21.4377L10.9684 21.0315C10.2456 20.3087 9.63881 19.5138 9.14795 18.67C8.82297 18.1114 8.17623 17.7989 7.55195 17.9662C7.03914 18.1036 6.51204 17.7993 6.37463 17.2865L5.87704 15.4294C5.81203 15.1868 5.84589 14.941 5.95393 14.7348ZM6.89008 25.1099L6.48385 25.5161C5.73305 26.2669 5.72526 27.5002 6.58947 28.1171C6.88112 28.3253 7.18029 28.5183 7.48587 28.696C8.04454 29.021 8.35702 29.6678 8.18974 30.2921C8.05234 30.8049 8.35666 31.332 8.86947 31.4694L10.7265 31.967C11.1698 32.0857 11.6237 31.8745 11.8274 31.4838C11.6212 31.5919 11.3753 31.6257 11.1327 31.5607L9.27569 31.0631C8.76288 30.9257 8.45856 30.3986 8.59597 29.8858C8.76325 29.2615 8.45077 28.6148 7.8921 28.2898C7.58651 28.112 7.28735 27.9191 6.9957 27.7109C6.13149 27.094 6.13928 25.8607 6.89008 25.1099ZM12.4768 30.4894C12.7098 30.3385 12.99 30.2541 13.2811 30.2541C13.9096 30.2541 14.487 30.6474 14.6497 31.2545L14.6584 31.2872C14.7958 31.8 15.3229 32.1044 15.8357 31.9669L17.6928 31.4693C17.963 31.3969 18.1753 31.2164 18.2956 30.9867C18.2343 31.0187 18.1686 31.0445 18.099 31.0631L16.242 31.5607C15.7292 31.6981 15.2021 31.3938 15.0647 30.881L15.0559 30.8482C14.8932 30.2412 14.3159 29.8479 13.6874 29.8479C13.1934 29.8479 12.7311 30.0908 12.4768 30.4894ZM18.9585 28.768C18.9862 28.7494 19.0147 28.7317 19.0438 28.7148C19.5885 28.4004 20.2913 28.448 20.736 28.8927L20.7581 28.9147C21.1335 29.2901 21.7421 29.2901 22.1175 28.9147L22.5237 28.5085C22.1483 28.8839 21.5397 28.8839 21.1643 28.5085L21.1423 28.4865C20.6975 28.0417 19.9947 27.9942 19.4501 28.3086C19.2489 28.4247 19.0815 28.5834 18.9585 28.768ZM23.7365 23.99C24.0514 23.7801 24.4416 23.6997 24.8243 23.8022L24.8543 23.8103C25.2975 23.929 25.7515 23.7178 25.9552 23.3271C25.7489 23.4352 25.5031 23.469 25.2605 23.404L25.2306 23.396C24.6561 23.2421 24.0646 23.5005 23.7365 23.99ZM25.4579 17.5083C25.5666 17.439 25.6867 17.3851 25.8167 17.3503L25.8495 17.3415C26.1197 17.2691 26.332 17.0886 26.4523 16.8589C26.391 16.8909 26.3252 16.9167 26.2557 16.9353L26.223 16.9441C25.8971 17.0314 25.6328 17.2382 25.4579 17.5083ZM20.5789 0.109863C20.3492 0.230183 20.1686 0.442498 20.0962 0.712692L20.0875 0.745356C20.0526 0.875353 19.9988 0.995546 19.9295 1.10417C20.1996 0.929273 20.4064 0.665006 20.4937 0.339118L20.5025 0.306454C20.5211 0.236894 20.5469 0.171169 20.5789 0.109863ZM14.1106 0.606958C13.72 0.810682 13.5087 1.26461 13.6275 1.70786L13.6355 1.73775C13.7381 2.12044 13.6576 2.5107 13.4477 2.82561C13.9372 2.4975 14.1957 1.90599 14.0418 1.33151L14.0337 1.30162C13.9687 1.059 14.0026 0.813191 14.1106 0.606958Z" fill="url(#paint3_linear_147_100)"/>
<path fill-rule="evenodd" clip-rule="evenodd" d="M9.47655 3.49112C9.85197 3.11603 10.4604 3.11614 10.8357 3.49143L10.8577 3.51345C11.3024 3.95818 12.0052 4.00575 12.5499 3.69129C12.751 3.57517 12.9185 3.41647 13.0415 3.23189C13.0138 3.25047 12.9853 3.26821 12.9562 3.28505C12.4115 3.59951 11.7087 3.55194 11.2639 3.10721L11.2419 3.0852C10.8665 2.7098 10.2579 2.70979 9.88247 3.0852L9.47655 3.49112ZM13.7044 1.01324C13.7657 0.981271 13.8314 0.955462 13.901 0.936824L15.758 0.439231C16.2708 0.301825 16.7979 0.606148 16.9354 1.11896L16.9441 1.15164C17.1068 1.75874 17.6842 2.15199 18.3127 2.152C18.8066 2.152 19.269 1.90913 19.5233 1.51046C19.2902 1.66138 19.0101 1.74576 18.7189 1.74576C18.0904 1.74576 17.513 1.35251 17.3504 0.745401L17.3416 0.712717C17.2042 0.19991 16.6771 -0.104413 16.1643 0.0329932L14.3072 0.530585C14.037 0.602984 13.8247 0.783567 13.7044 1.01324ZM20.1727 0.516147C20.3789 0.408108 20.6247 0.374243 20.8673 0.439252L22.7244 0.936845C23.2372 1.07425 23.5415 1.60135 23.4041 2.11416C23.2368 2.73844 23.5493 3.38516 24.1079 3.71014C24.4135 3.8879 24.7126 4.08087 25.0043 4.28904C25.8685 4.90594 25.8607 6.13925 25.1099 6.89006L25.5161 6.48382C26.2669 5.73302 26.2747 4.4997 25.4105 3.88281C25.1189 3.67463 24.8197 3.48166 24.5142 3.30391C23.9555 2.97893 23.643 2.3322 23.8103 1.70792C23.9477 1.19512 23.6434 0.668013 23.1306 0.530607L21.2736 0.0330137C20.8303 -0.0857542 20.3764 0.125497 20.1727 0.516147ZM21.4378 10.5622L21.0316 10.9684C21.7544 11.6912 22.3612 12.4861 22.852 13.3299C23.177 13.8885 23.8238 14.201 24.4481 14.0337C24.9609 13.8963 25.488 14.2006 25.6254 14.7134L26.123 16.5705C26.188 16.8131 26.1541 17.0589 26.0461 17.2652C26.4367 17.0614 26.648 16.6075 26.5292 16.1643L26.0316 14.3072C25.8942 13.7944 25.3671 13.4901 24.8543 13.6275C24.23 13.7948 23.5833 13.4823 23.2583 12.9236C22.7674 12.0799 22.1606 11.285 21.4378 10.5622ZM25.0517 17.9145C24.653 18.1688 24.4102 18.6312 24.4102 19.1251C24.4102 19.7536 24.8034 20.331 25.4105 20.4937L25.4433 20.5024C25.9561 20.6398 26.2604 21.167 26.123 21.6798L25.6254 23.5368C25.6067 23.6064 25.5809 23.6721 25.549 23.7334C25.7786 23.6131 25.9592 23.4008 26.0316 23.1306L26.5292 21.2735C26.6666 20.7607 26.3623 20.2336 25.8495 20.0962L25.8168 20.0874C25.2097 19.9248 24.8164 19.3474 24.8164 18.7189C24.8164 18.4278 24.9008 18.1476 25.0517 17.9145ZM23.3303 24.3963C23.1457 24.5193 22.987 24.6867 22.8709 24.8879C22.5564 25.4325 22.604 26.1353 23.0487 26.5801L23.0707 26.6021C23.4461 26.9775 23.4461 27.5861 23.0707 27.9615L23.477 27.5553C23.8524 27.1799 23.8524 26.5713 23.477 26.1959L23.4549 26.1738C23.0102 25.7291 22.9626 25.0263 23.2771 24.4816C23.2939 24.4525 23.3117 24.424 23.3303 24.3963ZM18.5523 29.1743C18.0628 29.5024 17.8043 30.0939 17.9583 30.6684L17.9663 30.6983C18.0313 30.9409 17.9974 31.1867 17.8894 31.393C18.28 31.1892 18.4913 30.7353 18.3725 30.2921L18.3645 30.2621C18.2619 29.8794 18.3424 29.4892 18.5523 29.1743ZM12.0706 30.8957C11.8005 31.0706 11.5937 31.3349 11.5064 31.6607L11.4976 31.6935C11.479 31.7631 11.4531 31.8288 11.4212 31.8901C11.6508 31.7698 11.8314 31.5575 11.9038 31.2873L11.9126 31.2545C11.9474 31.1245 12.0013 31.0043 12.0706 30.8957ZM5.5477 15.141C5.60901 15.1091 5.67473 15.0833 5.74429 15.0646L5.77701 15.0559C6.10289 14.9685 6.36716 14.7617 6.54205 14.4916C6.43343 14.5609 6.31324 14.6148 6.18325 14.6496L6.15053 14.6584C5.88033 14.7308 5.66802 14.9114 5.5477 15.141ZM6.04483 8.67282C6.25106 8.56478 6.49688 8.53092 6.73949 8.59593L6.76938 8.60393C7.34386 8.75787 7.93537 8.49941 8.26348 8.00992C7.94857 8.21977 7.55831 8.30024 7.17562 8.19769L7.14573 8.18969C6.70248 8.07092 6.24855 8.28217 6.04483 8.67282Z" fill="url(#paint4_linear_147_100)"/>
</g>
<defs>
<linearGradient id="paint0_linear_147_100" x1="21" y1="11" x2="5.99997" y2="26.5" gradientUnits="userSpaceOnUse">
<stop stop-color="#4B19AE"/>
<stop offset="1" stop-color="#9260F8"/>
</linearGradient>
<linearGradient id="paint1_linear_147_100" x1="15.5938" y1="14.2183" x2="18.0312" y2="17.4682" gradientUnits="userSpaceOnUse">
<stop stop-color="#0F0F12" stop-opacity="0.2"/>
<stop offset="1" stop-color="#0F0F12" stop-opacity="0"/>
</linearGradient>
<linearGradient id="paint2_linear_147_100" x1="10.6573" y1="21.3436" x2="26.7171" y2="5.28369" gradientUnits="userSpaceOnUse">
<stop stop-color="#4B19AE"/>
<stop offset="1" stop-color="#9260F8"/>
</linearGradient>
<linearGradient id="paint3_linear_147_100" x1="6.65652" y1="28.1929" x2="17.2187" y2="16.8182" gradientUnits="userSpaceOnUse">
<stop stop-color="#5321B6"/>
<stop offset="1" stop-color="#6937CD"/>
</linearGradient>
<linearGradient id="paint4_linear_147_100" x1="16.3797" y1="14.7628" x2="26.9672" y2="7.72293" gradientUnits="userSpaceOnUse">
<stop stop-color="#6C3AD0"/>
<stop offset="1" stop-color="#AD85FF"/>
</linearGradient>
<clipPath id="clip0_147_100">
<rect width="32" height="32" fill="white"/>
</clipPath>
</defs>
</svg>
